Coordinates
version=1
nRows=16
nColumns=40
inDegrees=yes

Units are S.I. units (second, meters, Newtons, ...)
Angles are in degrees.

endheader
time	pelvis_tilt	pelvis_list	pelvis_rotation	pelvis_tx	pelvis_ty	pelvis_tz	hip_flexion_r	hip_adduction_r	hip_rotation_r	knee_angle_r	knee_angle_r_beta	ankle_angle_r	subtalar_angle_r	mtp_angle_r	hip_flexion_l	hip_adduction_l	hip_rotation_l	knee_angle_l	knee_angle_l_beta	ankle_angle_l	subtalar_angle_l	mtp_angle_l	lumbar_extension	lumbar_bending	lumbar_rotation	arm_flex_r	arm_add_r	arm_rot_r	elbow_flex_r	pro_sup_r	wrist_flex_r	wrist_dev_r	arm_flex_l	arm_add_l	arm_rot_l	elbow_flex_l	pro_sup_l	wrist_flex_l	wrist_dev_l
     42.75250000	     -7.29908995	     -4.60718637	      2.42573244	      0.85524002	      0.92729606	      0.52577007	     15.61288117	      2.83825019	    -15.71801663	     17.55497436	     17.55497436	     10.06669198	     -3.40634486	     -2.64916702	     33.34586002	     -9.51370527	      0.79405621	     35.91208400	     35.91208400	     13.05991407	    -17.11166232	     14.50903081	    -11.49818791	      6.68491168	      2.30678561	     35.00565382	    -16.91533949	     -5.46208856	     68.02120037	     45.00037007	      0.00000000	      0.00000000	     -2.02749051	     -6.54617320	     -4.23023581	     26.93741217	     46.17951604	      0.00000000	      0.00000000
     42.76557143	     -7.29485638	     -4.36081597	      2.70589783	      0.85363935	      0.92770368	      0.52493472	     14.93933270	      2.58406365	    -15.85320520	     16.97934926	     16.97934926	     10.17873220	     -3.24543362	     -2.68600382	     33.02136774	     -8.88404670	      0.78698472	     32.21941475	     32.21941475	     12.48564198	    -16.26155761	     14.37412717	    -11.60876675	      6.42230702	      1.85432484	     35.67628685	    -16.58097219	     -5.47633215	     69.92222305	     44.94510399	      0.00000000	      0.00000000	     -2.78557641	     -6.57984311	     -4.25834266	     26.86304314	     46.16715596	      0.00000000	      0.00000000
     42.77864286	     -7.47131664	     -4.45293404	      2.98968026	      0.85184881	      0.92738467	      0.52410709	     14.65595489	      2.62253096	    -16.10310936	     16.73331989	     16.73331989	     10.35095191	     -3.13376796	     -2.81720768	     33.19081634	     -8.64184456	      0.87804826	     29.14842567	     29.14842567	     12.12711869	    -14.85099533	     14.18777400	    -11.44860951	      6.54704906	      1.78739439	     36.28202613	    -16.64926274	     -5.54297067	     71.33456130	     44.90699168	      0.00000000	      0.00000000	     -3.39572178	     -6.55133700	     -4.33108229	     26.95153702	     46.16519925	      0.00000000	      0.00000000
     42.79171429	     -7.61863944	     -4.63575054	      3.29529162	      0.85002135	      0.92699836	      0.52310640	     14.37532455	      2.73819150	    -16.40935917	     16.54969151	     16.54969151	     10.54856902	     -3.07065295	     -2.94441132	     33.42599705	     -8.48792466	      0.97054582	     26.43447861	     26.43447861	     11.75739608	    -13.34759101	     14.11840028	    -11.28892328	      6.85670308	      1.76333394	     36.91268472	    -16.76446634	     -5.62018450	     72.55148287	     44.87498400	      0.00000000	      0.00000000	     -3.91462039	     -6.52494775	     -4.41082787	     27.06240834	     46.16660812	      0.00000000	      0.00000000
     42.80478571	     -7.53827051	     -4.72519255	      3.52597500	      0.84864438	      0.92693708	      0.52211596	     13.68177934	      2.79243074	    -16.79771141	     16.11126826	     16.11126826	     10.67717867	     -2.53563071	     -3.47639886	     33.16576636	     -8.35409647	      0.73511277	     23.56636876	     23.56636876	     10.01144906	    -12.00824094	     10.48570461	    -11.51171075	      6.96550380	      2.41041877	     35.96879709	    -17.55774119	     -6.10233990	     77.42741271	     44.76724498	      0.00000000	      0.00000000	     -4.57251999	     -6.55607312	     -5.07532744	     28.70156283	     46.24077365	      0.00000000	      0.00000000
     42.81785714	     -7.60812390	     -4.78528882	      3.75603811	      0.84705748	      0.92679055	      0.52096924	     13.19679619	      2.82933325	    -16.95505615	     15.72472720	     15.72472720	     10.87405658	     -2.37263764	     -3.52851763	     33.25864797	     -8.14629028	      0.60335404	     21.37766056	     21.37766056	      9.56145572	    -10.54580870	     10.61740534	    -11.36872633	      7.08850470	      2.27618761	     36.49397459	    -17.33485405	     -6.12570813	     78.27425547	     44.74887796	      0.00000000	      0.00000000	     -4.94440954	     -6.60471886	     -5.11423748	     28.62097284	     46.23790504	      0.00000000	      0.00000000
     42.83092857	     -7.69415984	     -4.93502820	      3.96582082	      0.84548623	      0.92655595	      0.51978320	     12.71981524	      2.95797946	    -17.20435512	     15.32486362	     15.32486362	     11.05567025	     -2.13014488	     -3.58727910	     33.44009245	     -8.04937879	      0.44967819	     19.59368923	     19.59368923	      9.10120761	     -9.26246416	     10.67526903	    -11.19568222	      7.24713448	      2.19230485	     36.94896712	    -17.22499353	     -6.15484889	     79.23630627	     44.72588748	      0.00000000	      0.00000000	     -5.24597783	     -6.62674622	     -5.19375711	     28.74410812	     46.24210839	      0.00000000	      0.00000000
     42.84400000	     -7.74302572	     -5.06410671	      4.15290762	      0.84395597	      0.92639407	      0.51849067	     12.16798527	      3.07146943	    -17.44522750	     14.85831917	     14.85831917	     11.19988684	     -1.80122316	     -3.63150793	     33.62602621	     -7.96648579	      0.21055366	     18.21992275	     18.21992275	      8.52061703	     -8.22041103	     10.71044591	    -11.12399435	      7.39599719	      2.15004774	     37.25290381	    -17.10904626	     -6.17039500	     80.23541617	     44.70027502	      0.00000000	      0.00000000	     -5.50661839	     -6.67942665	     -5.30225545	     28.96588498	     46.25159657	      0.00000000	      0.00000000
     42.85707143	     -7.83557849	     -5.20009153	      4.29986098	      0.84249069	      0.92612057	      0.51714416	     11.65861742	      3.19833177	    -17.63883516	     14.38996052	     14.38996052	     11.35255941	     -1.48508078	     -3.66961932	     33.87077493	     -7.91036229	     -0.02868017	     17.22565702	     17.22565702	      7.93986486	     -7.46491649	     10.76046943	    -10.96560494	      7.55518770	      2.16171020	     37.55874005	    -17.02084240	     -6.18715513	     81.07582835	     44.67864107	      0.00000000	      0.00000000	     -5.66531634	     -6.78139992	     -5.40204129	     29.20710874	     46.26158962	      0.00000000	      0.00000000
     42.87014286	     -7.79245310	     -5.28599730	      4.38266068	      0.84125951	      0.92571904	      0.51573017	     11.17260564	      3.23864149	    -17.65002518	     14.32073834	     14.32073834	     11.72539354	     -1.47853303	     -3.78263300	     34.20506824	     -7.84876937	     -0.13808409	     17.08565983	     17.08565983	      7.50412896	     -7.31726716	     10.89998511	    -10.81598207	      7.57972288	      2.27111046	     37.63286353	    -16.94890016	     -6.16342756	     81.21522426	     44.67404340	      0.00000000	      0.00000000	     -5.70794406	     -6.81804629	     -5.42269719	     29.23917691	     46.26380395	      0.00000000	      0.00000000
     42.88321429	     -7.62847154	     -5.43630617	      4.44622731	      0.84051521	      0.92592325	      0.51428159	      9.85228748	      3.48678236	    -18.32085855	     12.90574469	     12.90574469	     11.58942480	      0.15332421	     -4.25602046	     33.78445264	     -7.95752371	     -0.72534293	     16.11691994	     16.11691994	      6.21608213	     -6.54204261	      9.01899265	    -11.09108255	      7.73155406	      2.67934926	     36.68803873	    -17.18525880	     -6.55157840	     85.04840397	     44.59735572	      0.00000000	      0.00000000	     -6.19863996	     -6.93558508	     -6.14959814	     31.42462121	     46.34341801	      0.00000000	      0.00000000
     42.89628571	     -7.63089519	     -5.60626697	      4.45155749	      0.83962346	      0.92554706	      0.51281671	      9.09333386	      3.71811167	    -18.36157291	     12.19963017	     12.19963017	     11.71365769	      0.54847650	     -4.26714811	     33.83941760	     -8.04335745	     -0.85597489	     16.04799806	     16.04799806	      5.61412679	     -6.53501723	      9.01223494	    -10.92598903	      7.86061953	      2.68833151	     36.72722853	    -16.90881669	     -6.50931577	     85.46636403	     44.59004855	      0.00000000	      0.00000000	     -6.19947039	     -7.01306111	     -6.18763264	     31.54806325	     46.34536052	      0.00000000	      0.00000000
     42.90935714	     -7.55560459	     -5.77982040	      4.40807370	      0.83897632	      0.92508553	      0.51128367	      8.25632997	      3.94127923	    -18.43212046	     11.55481670	     11.55481670	     11.90255529	      1.07297036	     -4.36981135	     33.80456953	     -8.18402363	     -0.97880993	     16.30511298	     16.30511298	      5.06775006	     -6.64881046	      8.90780562	    -10.84230468	      7.97568404	      2.77341447	     36.61916133	    -16.70087258	     -6.43076966	     85.93183348	     44.57937915	      0.00000000	      0.00000000	     -6.18548812	     -7.13126079	     -6.26448174	     31.85615869	     46.35291059	      0.00000000	      0.00000000
     42.92242857	     -7.59364359	     -5.90808099	      4.34869167	      0.83830983	      0.92429509	      0.50961644	      7.82929815	      4.01269937	    -18.36727452	     11.48825392	     11.48825392	     12.26844786	      1.14227691	     -4.49870335	     33.70871704	     -8.27553889	     -1.12311141	     16.48385522	     16.48385522	      4.54497285	     -6.66630423	      9.06383556	    -10.57676452	      8.01798810	      2.81710346	     36.57772199	    -16.61295909	     -6.38636421	     85.99644233	     44.57636893	      0.00000000	      0.00000000	     -6.11146200	     -7.21844869	     -6.28623183	     31.93151502	     46.35688720	      0.00000000	      0.00000000
     42.93550000	     -7.38111993	     -6.24972569	      4.21417766	      0.83825648	      0.92371028	      0.50809804	      6.53662393	      4.49899124	    -18.60985892	     10.27923104	     10.27923104	     12.26886943	      2.35222240	     -4.69651819	     33.51660571	     -8.65494666	     -1.08799041	     17.21797245	     17.21797245	      4.01818648	     -7.04207419	      8.51889658	    -10.62745050	      8.27625391	      3.02503427	     36.09125512	    -16.47828154	     -6.15563811	     86.93390593	     44.55123903	      0.00000000	      0.00000000	     -6.23049011	     -7.38648392	     -6.49613682	     32.95887613	     46.37698602	      0.00000000	      0.00000000
     42.94857143	     -7.29297972	     -6.42281461	      4.04361506	      0.83813613	      0.92274258	      0.50636693	      5.83019117	      4.64982663	    -18.53254574	     10.00125425	     10.00125425	     12.61350417	      2.73748490	     -4.91691236	     33.31922519	     -8.85395595	     -1.13755275	     17.89527515	     17.89527515	      3.56169197	     -7.39575735	      8.28934087	    -10.49949419	      8.31636128	      3.15374276	     35.70377119	    -16.37998251	     -5.98431521	     87.17098660	     44.54417363	      0.00000000	      0.00000000	     -6.20422918	     -7.53479499	     -6.59530125	     33.47320249	     46.38729804	      0.00000000	      0.00000000
